<?xml version="1.0" encoding="utf-8"?>
<!-- Generator: Adobe Illustrator 19.0.1, SVG Export Plug-In . SVG Version: 6.00 Build 0)  -->
<svg version="1.1" id="Layer_1" xmlns="http://www.w3.org/2000/svg" xmlns:xlink="http://www.w3.org/1999/xlink" x="0px" y="0px"
	 viewBox="83 40.6 761.3 761.3" style="enable-background:new 83 40.6 761.3 761.3;" xml:space="preserve">
<style type="text/css">
	.st0{fill:#FF391F;}
	.st1{fill:#010101;}
</style>
<g>
	<rect x="83" y="40.6" class="st0" width="761.3" height="761.3"/>
	<g>
		<path class="st1" d="M467.9,454.3c44.4,0,80.5-36.1,80.5-80.5c0-44.4-36.1-80.5-80.5-80.5s-80.5,36.1-80.5,80.5
			C387.4,418.2,423.5,454.3,467.9,454.3z M467.9,321.3c28.9,0,52.5,23.6,52.5,52.5c0,28.9-23.6,52.5-52.5,52.5s-52.5-23.6-52.5-52.5
			C415.4,344.9,439,321.3,467.9,321.3z"/>
		<path class="st1" d="M662.4,373.8c0-107.2-87.3-194.5-194.5-194.5s-194.5,87.3-194.5,194.5c0,5,0.2,10,0.6,14.9v259.7h27.2V473.8
			c8.4,13.9,18.4,26.6,29.8,37.9v136.6h27.2V537.9l114.3,114.3l19.2-19.2l-70.3-70.3c14.9,3.7,30.5,5.6,46.5,5.6
			C575.1,568.3,662.4,481.1,662.4,373.8z M301.4,373.8c0-91.8,74.7-166.5,166.5-166.5S634.4,282,634.4,373.8
			s-74.7,166.5-166.5,166.5c-42,0-80.4-15.6-109.7-41.4v-42.6c25.1,33.3,64.9,54.8,109.7,54.8c75.7,0,137.3-61.6,137.3-137.3
			s-61.6-137.3-137.3-137.3s-137.3,61.6-137.3,137.3c0,3.5,0.1,7.1,0.4,10.5v84.1C312.3,441.5,301.4,408.9,301.4,373.8z
			 M358.6,373.8c0-60.3,49-109.3,109.3-109.3s109.3,49,109.3,109.3s-49,109.3-109.3,109.3S358.6,434.1,358.6,373.8z"/>
	</g>
</g>
</svg>
